<svg version="1.1" viewBox="0.0 0.0 123.04461942257218 126.18110236220473" fill="none" stroke="none" stroke-linecap="square" stroke-miterlimit="10" xmlns:xlink="http://www.w3.org/1999/xlink" xmlns="http://www.w3.org/2000/svg"><clipPath id="p.0"><path d="m0 0l123.04462 0l0 126.1811l-123.04462 0l0 -126.1811z" clip-rule="nonzero"/></clipPath><g clip-path="url(#p.0)"><path fill="#000000" fill-opacity="0.0" d="m0 0l123.04462 0l0 126.1811l-123.04462 0z" fill-rule="evenodd"/><path fill="#c9daf8" d="m2.5459318 63.09055l0 0c0 -32.571754 26.404625 -58.976376 58.976376 -58.976376l0 0c15.64151 0 30.64238 6.2135644 41.7026 17.27378c11.060219 11.060215 17.27378 26.061089 17.27378 41.702595l0 0c0 32.57176 -26.404625 58.976383 -58.97638 58.976383l0 0c-32.571754 0 -58.976376 -26.404625 -58.976376 -58.976383z" fill-rule="evenodd"/><path stroke="#c9daf8" stroke-width="1.0" stroke-linejoin="round" stroke-linecap="butt" d="m2.5459318 63.09055l0 0c0 -32.571754 26.404625 -58.976376 58.976376 -58.976376l0 0c15.64151 0 30.64238 6.2135644 41.7026 17.27378c11.060219 11.060215 17.27378 26.061089 17.27378 41.702595l0 0c0 32.57176 -26.404625 58.976383 -58.97638 58.976383l0 0c-32.571754 0 -58.976376 -26.404625 -58.976376 -58.976383z" fill-rule="evenodd"/><path fill="#000000" fill-opacity="0.0" d="m16.08924 32.509186l90.86614 0l0 61.16535l-90.86614 0z" fill-rule="evenodd"/><path fill="#ffffff" d="m27.011114 72.656685l3.8125 -0.328125q0.265625 2.28125 1.2499981 3.75q1.0 1.46875 3.078125 2.375q2.078125 0.90625 4.6875 0.90625q2.3125 0 4.078125 -0.6875q1.765625 -0.6875 2.625 -1.875q0.875 -1.203125 0.875 -2.625q0 -1.4375 -0.84375 -2.5q-0.828125 -1.078125 -2.734375 -1.796875q-1.234375 -0.484375 -5.4375 -1.484375q-4.203125 -1.015625 -5.890625 -1.921875q-2.187498 -1.140625 -3.265623 -2.828125q-1.078125 -1.703125 -1.078125 -3.8125q0 -2.3125 1.3125 -4.3125q1.3125 -2.015625 3.828123 -3.0625q2.53125 -1.046875 5.609375 -1.046875q3.390625 0 5.984375 1.09375q2.59375 1.09375 3.984375 3.21875q1.40625 2.125 1.515625 4.8125l-3.875 0.296875q-0.3125 -2.890625 -2.125 -4.375q-1.796875 -1.484375 -5.3125 -1.484375q-3.671875 0 -5.34375 1.34375q-1.671875 1.34375 -1.671875 3.25q0 1.640625 1.1875 2.703125q1.15625 1.0625 6.078125 2.1875q4.9375 1.109375 6.765625 1.9375q2.671875 1.234375 3.9375 3.125q1.265625 1.875 1.265625 4.328125q0 2.4375 -1.390625 4.59375q-1.390625 2.15625 -4.015625 3.359375q-2.609375 1.1875 -5.875 1.1875q-4.15625 0 -6.953125 -1.203125q-2.796873 -1.203125 -4.390623 -3.625q-1.59375 -2.4375 -1.671875 -5.5zm41.677658 9.8125l0 -30.53125l11.515625 0q3.03125 0 4.640625 0.28125q2.25 0.375 3.765625 1.4375q1.53125 1.046875 2.453125 2.953125q0.921875 1.890625 0.921875 4.15625q0 3.890625 -2.484375 6.59375q-2.46875 2.703125 -8.953125 2.703125l-7.828125 0l0 12.40625l-4.03125 0zm4.03125 -16.015625l7.890625 0q3.921875 0 5.5625 -1.453125q1.65625 -1.46875 1.65625 -4.109375q0 -1.921875 -0.96875 -3.28125q-0.96875 -1.359375 -2.5625 -1.796875q-1.015625 -0.28125 -3.765625 -0.28125l-7.8125 0l0 10.921875z" fill-rule="nonzero"/></g></svg>